<svg width="766" height="547" viewBox="0 0 766 547" fill="none" xmlns="http://www.w3.org/2000/svg">
<circle opacity="0.56" r="20.25" transform="matrix(1 0 0 -1 243 128.25)" fill="#69EAEF"/>
<circle opacity="0.56" r="10.125" transform="matrix(1 0 0 -1 266.625 10.125)" fill="#69EAEF"/>
<circle opacity="0.56" r="16.875" transform="matrix(1 0 0 -1 546.75 108)" fill="#69EAEF"/>
<circle opacity="0.56" r="11.8125" transform="matrix(1 0 0 -1 453.938 241.312)" fill="#69EAEF"/>
<circle opacity="0.56" r="15.1875" transform="matrix(1 0 0 -1 366.188 59.0625)" fill="#69EAEF"/>
<circle opacity="0.56" r="18.5625" transform="matrix(1 0 0 -1 295.312 325.688)" fill="#69EAEF"/>
<mask id="mask0_876_29" style="mask-type:alpha" maskUnits="userSpaceOnUse" x="192" y="172" width="375" height="375">
<circle cx="379.688" cy="359.438" r="187.312" fill="#E8E8E8"/>
</mask>
<g mask="url(#mask0_876_29)">
<path d="M-461.285 401.203C-507.586 399.738 -575.577 369.455 -575.577 369.455V924.521H567.346V369.455C567.346 369.455 513.114 341.572 475.278 337.707C403.094 330.335 373.187 403.498 300.664 401.203C254.364 399.738 186.372 369.455 186.372 369.455C186.372 369.455 132.139 341.572 94.303 337.707C22.1193 330.335 -7.78723 403.498 -80.3103 401.203C-126.611 399.738 -194.603 369.455 -194.603 369.455C-194.603 369.455 -248.836 341.572 -286.671 337.707C-358.855 330.335 -388.762 403.498 -461.285 401.203Z" fill="#004F9D"/>
<path d="M-277.208 398.517C-323.508 397.052 -391.5 366.769 -391.5 366.769V921.835H751.424V366.769C751.424 366.769 697.191 338.886 659.355 335.021C587.171 327.649 557.264 400.811 484.741 398.517C438.441 397.052 370.449 366.769 370.449 366.769C370.449 366.769 316.216 338.886 278.38 335.021C206.196 327.649 176.29 400.811 103.767 398.517C57.4661 397.052 -10.5255 366.769 -10.5255 366.769C-10.5255 366.769 -64.7584 338.886 -102.594 335.021C-174.778 327.649 -204.685 400.811 -277.208 398.517Z" fill="url(#paint0_linear_876_29)"/>
</g>
<circle opacity="0.56" r="10.125" transform="matrix(1 0 0 -1 459 378)" fill="#69EAEF"/>
<path d="M24.8063 251.944V158.456H0V274.388H82.5188V251.944H24.8063Z" fill="white"/>
<path d="M135.472 185.119C123.322 185.119 111.341 188.494 99.022 194.738L107.291 211.106C114.209 207.563 121.803 204.863 129.903 204.863C144.247 204.863 150.153 212.963 150.153 222.244V224.1C142.728 221.063 134.797 219.544 127.709 219.544C107.628 219.544 91.597 231.356 91.597 248.569C91.597 265.275 105.772 276.413 124.334 276.413C133.953 276.413 143.909 272.531 150.153 265.613V274.388H173.947V222.244C173.947 199.463 158.253 185.119 135.472 185.119ZM129.903 259.369C121.466 259.369 115.053 254.981 115.053 247.894C115.053 240.806 122.309 235.575 131.253 235.575C138.003 235.575 144.584 236.756 150.153 238.95V246.881C148.297 254.981 139.353 259.369 129.903 259.369Z" fill="white"/>
<path d="M247.975 187.144V238.781C247.975 248.231 239.875 255.656 229.582 255.656C219.794 255.656 213.044 248.231 213.044 237.431V187.144H189.25V242.663C189.25 262.575 202.582 276.413 221.65 276.413C232.957 276.413 242.744 271.35 247.975 263.588V274.388H272.444V187.144H247.975Z" fill="white"/>
<path d="M342.261 185.119C330.954 185.119 321.167 190.181 315.936 197.944V187.144H291.298V274.388H315.936V222.75C315.936 213.3 324.036 205.875 334.329 205.875C344.117 205.875 350.867 213.3 350.867 224.1V274.388H374.492V218.869C374.492 198.956 361.161 185.119 342.261 185.119Z" fill="white"/>
<path d="M456.623 156.431V199.463C449.704 190.519 439.411 185.119 427.26 185.119C403.973 185.119 387.267 204.019 387.267 230.681C387.267 257.513 403.973 276.413 427.26 276.413C439.411 276.413 449.704 271.013 456.623 262.069V274.388H481.26V156.431H456.623ZM434.348 255.656C420.848 255.656 411.229 245.363 411.229 230.681C411.229 216.169 420.848 205.875 434.348 205.875C447.51 205.875 456.623 216.169 456.623 230.681C456.623 245.363 447.51 255.656 434.348 255.656Z" fill="white"/>
<path d="M525.884 203.513V187.144H501.247V274.388H525.884V232.706C525.884 216.338 537.528 205.875 555.753 205.875V185.119C542.422 185.119 531.622 192.206 525.884 203.513Z" fill="white"/>
<path d="M581.465 175.163C588.721 175.163 594.796 169.088 594.796 161.663C594.796 154.744 588.721 148.5 581.465 148.5C573.871 148.5 567.965 154.744 567.965 161.663C567.965 169.088 573.871 175.163 581.465 175.163ZM568.978 274.388H593.615V187.144H568.978V274.388Z" fill="white"/>
<path d="M643.361 182.419C643.361 176.681 646.904 172.631 651.461 172.631C654.836 172.631 658.211 173.813 659.898 175.5L665.804 160.481C660.742 155.925 652.811 152.888 645.892 152.888C630.367 152.888 619.567 163.856 619.567 179.55V187.144H607.586V207.056H619.567V274.388H643.361V207.056H662.261V187.144H643.361V182.419Z" fill="white"/>
<path d="M698.02 304.763C711.857 304.763 722.826 295.819 729.576 278.775L765.182 187.144H740.039L718.439 248.4L695.489 187.144H670.007L706.289 275.231L703.926 280.294C701.564 284.344 697.514 286.369 692.957 286.369C690.089 286.369 685.532 284.85 681.482 282.488L676.251 299.363C682.157 302.569 690.764 304.763 698.02 304.763Z" fill="white"/>
<defs>
<linearGradient id="paint0_linear_876_29" x1="179.962" y1="334.499" x2="373.078" y2="693.562" gradientUnits="userSpaceOnUse">
<stop offset="0.336554" stop-color="#69EAEF"/>
<stop offset="1" stop-color="#2977C5" stop-opacity="0"/>
</linearGradient>
</defs>
</svg>
